<svg width="72" height="38" viewBox="0 0 985 512" fill="none" xmlns="http://www.w3.org/2000/svg">
    <g clip-path="url(#clip0_27_189)">
        <g clip-path="url(#clip1_27_189)">
            <path fill-rule="evenodd" clip-rule="evenodd" d="M255.957 8.6297C119.362 8.6297 8.6297 119.362 8.6297 255.957C8.6297 392.552 119.362 503.284 255.957 503.284C392.552 503.284 503.284 392.552 503.284 255.957C503.284 119.362 392.552 8.6297 255.957 8.6297ZM0 255.957C0 114.596 114.596 0 255.957 0C397.318 0 511.914 114.596 511.914 255.957C511.914 397.318 397.318 511.914 255.957 511.914C114.596 511.914 0 397.318 0 255.957Z" fill="white"/>
            <path fill-rule="evenodd" clip-rule="evenodd" d="M255.957 46.8593C140.475 46.8593 46.859 140.475 46.859 255.957C46.859 371.438 140.475 465.054 255.957 465.054C371.438 465.054 465.054 371.438 465.054 255.957C465.054 140.475 371.438 46.8593 255.957 46.8593ZM29.5996 255.957C29.5996 130.943 130.943 29.5999 255.957 29.5999C380.97 29.5999 482.314 130.943 482.314 255.957C482.314 380.97 380.97 482.314 255.957 482.314C130.943 482.314 29.5996 380.97 29.5996 255.957Z" fill="white"/>
            <path d="M350.205 353.957C347.866 355.594 344.65 356.705 340.556 357.29C336.696 357.875 333.89 357.758 332.135 356.939C331.667 356.705 331.199 355.887 330.732 354.483C330.381 352.963 329.913 351.91 329.328 351.325C329.094 351.092 328.802 350.916 328.451 350.799C323.773 348.226 318.744 346.004 313.364 344.133C300.732 339.454 287.691 336.589 274.241 335.536C267.341 319.045 263.598 310.04 263.013 308.519C258.92 298.11 257.633 292.145 259.154 290.625L391.082 158.697C391.9 157.878 394.415 158.054 398.625 159.223C402.953 160.51 405.701 161.855 406.871 163.258C408.157 164.779 410.029 168.521 412.485 174.486C415.058 180.334 417.689 184.603 420.379 187.293C423.888 190.802 430.028 193.784 438.8 196.24C446.987 198.345 451.49 200.275 452.309 202.029C454.18 205.772 455.233 213.023 455.467 223.784C455.934 234.544 455.291 241.269 453.537 243.959C452.718 245.245 449.794 245.947 444.765 246.064C439.853 246.298 436.636 245.655 435.116 244.134C433.829 242.848 433.069 241.736 432.835 240.801C432.601 239.865 432.309 239.339 431.958 239.222C426.812 235.947 421.783 233.14 416.871 230.801C405.292 225.07 395.526 222.088 387.573 221.854L358.977 250.45C365.176 252.438 372.661 255.596 381.433 259.923C383.538 261.561 384.824 268.11 385.292 279.572C385.994 291.034 385.292 297.818 383.187 299.923C381.9 301.209 379.561 301.911 376.17 302.028C372.778 302.145 370.088 301.677 368.1 300.624C366.93 299.455 364.766 297.525 361.608 294.835C356.345 291.209 344.767 287.116 326.872 282.555L308.451 300.975C314.065 302.379 321.258 304.659 330.03 307.817C339.036 310.975 344.24 313.256 345.644 314.659C347.281 316.297 348.802 322.963 350.205 334.659C351.842 346.355 351.842 352.787 350.205 353.957Z" fill="white"/>
            <path d="M165.451 354.206C167.8 355.85 171.03 356.965 175.14 357.552C179.015 358.14 181.834 358.022 183.595 357.2C184.065 356.965 184.535 356.143 185.004 354.734C185.357 353.207 185.827 352.15 186.414 351.563C186.649 351.328 186.942 351.152 187.294 351.035C191.992 348.451 197.042 346.22 202.444 344.341C215.127 339.643 228.221 336.766 241.726 335.709C248.655 319.151 252.413 310.108 253 308.582C257.11 298.13 258.402 292.141 256.875 290.614L124.408 158.146C123.586 157.324 121.061 157.501 116.833 158.675C112.488 159.967 109.728 161.317 108.554 162.726C107.262 164.253 105.383 168.011 102.917 174C100.333 179.872 97.691 184.158 94.9899 186.859C91.4669 190.383 85.3015 193.377 76.4938 195.843C68.2733 197.957 63.752 199.895 62.9299 201.656C61.051 205.414 59.9941 212.695 59.7592 223.499C59.2894 234.304 59.9353 241.056 61.6969 243.757C62.5189 245.049 65.4548 245.754 70.5046 245.871C75.4369 246.106 78.6664 245.46 80.193 243.933C81.4848 242.641 82.2481 241.526 82.483 240.586C82.7179 239.647 83.0115 239.118 83.3638 239.001C88.531 235.713 93.5807 232.894 98.513 230.546C110.139 224.791 119.945 221.797 127.931 221.562L156.644 250.275C150.42 252.271 142.904 255.442 134.096 259.787C131.982 261.431 130.69 268.008 130.221 279.516C129.516 291.025 130.221 297.836 132.335 299.95C133.626 301.242 135.975 301.947 139.381 302.064C142.786 302.181 145.487 301.712 147.484 300.655C148.658 299.48 150.831 297.543 154.001 294.842C159.286 291.201 170.912 287.091 188.88 282.511L207.376 301.007C201.739 302.416 194.517 304.706 185.709 307.877C176.667 311.048 171.441 313.338 170.031 314.747C168.387 316.391 166.861 323.085 165.451 334.829C163.807 346.572 163.807 353.031 165.451 354.206Z" fill="white"/>
        </g>
        <rect width="512" height="512" fill="#009F55"/>
        <path d="M336.984 348.203C334.747 349.77 331.672 350.834 327.759 351.394C324.069 351.954 321.385 351.842 319.708 351.058C319.261 350.834 318.813 350.05 318.366 348.707C318.031 347.251 317.583 346.243 317.024 345.683C316.801 345.459 316.521 345.291 316.186 345.179C311.713 342.716 306.905 340.588 301.761 338.796C289.685 334.317 277.218 331.574 264.359 330.566C257.761 314.777 254.183 306.154 253.624 304.698C249.711 294.732 248.481 289.021 249.934 287.566L376.063 161.252C376.846 160.468 379.25 160.636 383.276 161.756C387.413 162.988 390.041 164.276 391.159 165.619C392.389 167.075 394.178 170.659 396.526 176.37C398.986 181.969 401.502 186.056 404.074 188.631C407.428 191.991 413.298 194.846 421.685 197.198C429.512 199.213 433.817 201.061 434.599 202.741C436.389 206.324 437.395 213.267 437.619 223.569C438.066 233.871 437.451 240.31 435.774 242.886C434.991 244.117 432.195 244.789 427.387 244.901C422.691 245.125 419.616 244.509 418.162 243.054C416.932 241.822 416.206 240.758 415.982 239.862C415.758 238.966 415.479 238.462 415.143 238.35C410.223 235.215 405.415 232.527 400.719 230.288C389.649 224.801 380.312 221.945 372.709 221.721L345.37 249.1C351.296 251.004 358.452 254.028 366.839 258.171C368.851 259.739 370.081 266.009 370.529 276.983C371.199 287.957 370.529 294.452 368.516 296.468C367.286 297.7 365.05 298.372 361.807 298.484C358.564 298.596 355.992 298.148 354.091 297.14C352.973 296.02 350.905 294.172 347.886 291.597C342.854 288.125 331.784 284.206 314.676 279.839L297.065 297.476C302.432 298.82 309.309 301.003 317.695 304.027C326.305 307.05 331.281 309.234 332.623 310.577C334.188 312.145 335.642 318.528 336.984 329.726C338.549 340.924 338.549 347.083 336.984 348.203Z" fill="white"/>
        <path d="M175.564 348.193C177.813 349.765 180.904 350.832 184.839 351.393C188.549 351.955 191.247 351.842 192.934 351.056C193.383 350.832 193.833 350.046 194.283 348.699C194.62 347.239 195.07 346.228 195.632 345.667C195.857 345.442 196.138 345.274 196.475 345.162C200.972 342.692 205.806 340.558 210.978 338.762C223.12 334.271 235.655 331.52 248.584 330.509C255.217 314.678 258.814 306.032 259.376 304.572C263.311 294.579 264.548 288.853 263.087 287.394L136.272 160.742C135.485 159.956 133.068 160.124 129.02 161.247C124.861 162.482 122.219 163.773 121.095 165.12C119.858 166.58 118.059 170.173 115.698 175.899C113.225 181.513 110.695 185.612 108.11 188.194C104.737 191.562 98.8345 194.426 90.4027 196.783C82.533 198.805 78.2047 200.657 77.4177 202.341C75.6189 205.934 74.6071 212.896 74.3822 223.225C73.9325 233.555 74.5509 240.011 76.2372 242.594C77.0242 243.829 79.8348 244.503 84.6691 244.615C89.3909 244.839 92.4826 244.222 93.9441 242.762C95.1808 241.527 95.9115 240.46 96.1364 239.562C96.3612 238.664 96.6423 238.159 96.9795 238.046C101.926 234.903 106.76 232.208 111.482 229.962C122.612 224.461 132 221.597 139.645 221.373L167.132 248.825C161.174 250.734 153.979 253.766 145.547 257.92C143.523 259.492 142.287 265.78 141.837 276.783C141.162 287.787 141.837 294.299 143.86 296.32C145.097 297.555 147.346 298.229 150.606 298.341C153.866 298.453 156.452 298.004 158.363 296.994C159.487 295.871 161.567 294.018 164.603 291.436C169.662 287.955 180.792 284.025 197.993 279.646L215.7 297.33C210.303 298.678 203.389 300.867 194.957 303.899C186.301 306.93 181.298 309.12 179.949 310.467C178.375 312.039 176.913 318.439 175.564 329.667C173.99 340.895 173.99 347.07 175.564 348.193Z" fill="white"/>
    </g>
    <path d="M576 317.1H737.616V273.756H626.4V219.324H713.76V177.996H626.4V125.244H733.92V81.8999H576V317.1Z" fill="white"/>
    <path d="M747.457 317.1H794.833V81.8999H747.457V317.1Z" fill="white"/>
    <path d="M811.048 317.1H858.424V275.1L884.296 247.212L927.976 317.1H982.744L917.224 212.268L979.384 144.396H925.96L858.424 217.644V81.8999H811.048V317.1Z" fill="white"/>
    <path d="M576 429.389H593.712V395.727H623.94V381.148H593.712V361.709H630.552V346.419H576V429.389Z" fill="white"/>
    <path d="M644.951 361.946C650.383 361.946 654.633 357.916 654.633 352.582C654.633 347.13 650.383 343.1 644.951 343.1C639.519 343.1 635.269 347.13 635.269 352.582C635.269 357.916 639.519 361.946 644.951 361.946ZM636.567 429.389H653.334V368.465H636.567V429.389Z" fill="white"/>
    <path d="M697.29 367.754C687.962 367.754 682.412 371.31 678.515 376.051L676.98 368.465H662.457V429.389H679.106V398.216C679.106 387.667 684.065 381.503 692.685 381.503C701.068 381.503 704.965 386.955 704.965 397.267V429.389H721.614V395.608C721.614 374.747 710.396 367.754 697.29 367.754Z" fill="white"/>
    <path d="M787.601 415.284C785.003 415.284 783.704 414.691 783.704 411.491V389.919C783.704 375.34 773.904 367.754 756.901 367.754C740.842 367.754 729.979 375.577 728.798 387.43H744.857C745.565 382.925 749.934 379.962 756.428 379.962C763.395 379.962 767.291 383.518 767.291 388.97V391.934H755.248C737.064 391.934 727.381 399.282 727.381 412.202C727.381 423.818 736.827 430.1 749.934 430.1C759.38 430.1 765.52 426.188 769.771 419.432C769.653 425.24 772.369 429.389 780.988 429.389H789.49V415.284H787.601ZM767.291 404.261C767.173 412.558 761.86 418.01 753.122 418.01C747.572 418.01 744.148 415.284 744.148 411.017C744.148 405.92 748.163 403.075 755.129 403.075H767.291V404.261Z" fill="white"/>
    <path d="M828.402 367.754C819.074 367.754 813.524 371.31 809.628 376.051L808.093 368.465H793.569V429.389H810.218V398.216C810.218 387.667 815.177 381.503 823.797 381.503C832.181 381.503 836.077 386.955 836.077 397.267V429.389H852.726V395.608C852.726 374.747 841.509 367.754 828.402 367.754Z" fill="white"/>
    <path d="M889.199 430.1C905.73 430.1 916.711 420.973 919.073 406.394H901.597C900.417 412.558 896.048 416.469 889.554 416.469C880.816 416.469 875.266 409.357 875.266 398.927C875.266 388.615 880.816 381.385 889.554 381.385C896.048 381.385 900.181 385.178 901.597 391.222H918.955C916.593 376.762 906.321 367.754 889.79 367.754C870.543 367.754 858.263 380.081 858.263 398.927C858.263 418.128 869.953 430.1 889.199 430.1Z" fill="white"/>
    <path d="M955.481 430.1C971.657 430.1 982.166 420.618 984.055 408.765H967.643C966.226 414.454 961.503 417.417 954.772 417.417C946.389 417.417 940.839 412.202 940.485 403.549V402.72H984.528C984.882 400.823 985 398.808 985 397.03C984.764 379.133 972.484 367.754 954.3 367.754C935.525 367.754 923.127 380.081 923.127 399.045C923.127 417.891 935.289 430.1 955.481 430.1ZM940.839 391.815C941.784 384.585 947.215 380.199 954.418 380.199C961.975 380.199 967.052 384.348 968.233 391.815H940.839Z" fill="white"/>
    <defs>
        <clipPath id="clip0_27_189">
            <rect width="512" height="512" rx="256" fill="white"/>
        </clipPath>
        <clipPath id="clip1_27_189">
            <rect width="512" height="512" fill="white"/>
        </clipPath>
    </defs>
</svg>